# xmcd
#
# Track frame offsets:
#	150
#	16715
#	39018
#	60668
#	79750
#	99993
#	121065
#	139848
#	161303
#	183443
#	203410
#	226965
#	240770
#	262538
#
# Disc length: 3514 seconds
#
# Revision: 1
# Processed by: cddbd v1.5.1PL0 Copyright (c) Steve Scherf et al.
# Submitted via: CDex 1.50Beta5
#
DISCID=8e0db80e
DTITLE=ポルノグラフィティ - WORLDILLIA
DYEAR=2003
DGENRE=Rock
TTITLE0=CLUB UNDERWORLD
TTITLE1=惑星キミ
TTITLE2=元素L
TTITLE3=Mugen
TTITLE4=デッサン#3
TTITLE5=ヴィンテージ
TTITLE6=☆サタデーグラフティ(★★★)
TTITLE7=素晴らしき人生かな?
TTITLE8=朱いオレンジ
TTITLE9=Go Steady Go!
TTITLE10=カルマの坂
TTITLE11=didgedilli
TTITLE12=渦(Helix Track)
TTITLE13=くちびるにうた
EXTD=
EXTT0=
EXTT1=
EXTT2=
EXTT3=
EXTT4=
EXTT5=
EXTT6=
EXTT7=
EXTT8=
EXTT9=
EXTT10=
EXTT11=
EXTT12=
EXTT13=
PLAYORDER=
